<svg xmlns="http://www.w3.org/2000/svg" data-name="hand-brain-technology-artificial intelligence-link" viewBox="0 0 64 64"><path d="M50.8,39.49a2.23,2.23,0,0,0-1.71.58l-7.42,6.67A.971.971,0,0,1,41,47H35.88A4.034,4.034,0,0,1,32,50H24V48h8a2,2,0,0,0,2-1.97v-.14A2.127,2.127,0,0,0,31.83,44h-7.5a3.018,3.018,0,0,0-1.8.6L20.67,46a5.075,5.075,0,0,1-3,1H14V57H29.85l9.66-2.9L52.28,43.31a2.262,2.262,0,0,0,.11-2.97A2.239,2.239,0,0,0,50.8,39.49Z"/><rect width="4" height="16" x="8" y="44"/><path d="M18.185 12.452A4 4 0 0 0 16 16a3.918 3.918 0 0 0 .22 1.281A5.98 5.98 0 0 1 18 17v2a3.909 3.909 0 0 0-1.822.443A4 4 0 0 0 18 27c.133 0 .241-.03.365-.041A6 6 0 0 1 24 23v2a4 4 0 1 0 4 4V11a4 4 0 1 0-4 4v2A6.005 6.005 0 0 1 18.185 12.452zM40 33a4 4 0 0 0 0-8V23a6 6 0 0 1 5.635 3.959c.124.011.232.041.365.041a4 4 0 0 0 1.832-7.552A3.923 3.923 0 0 0 46 19V17a5.963 5.963 0 0 1 1.78.281A3.909 3.909 0 0 0 48 16a4 4 0 0 0-2.185-3.548A6.005 6.005 0 0 1 40 17V15a4 4 0 1 0-4-4V29A4 4 0 0 0 40 33zM6 23a3 3 0 0 0 2.82-2h3.53a5.489 5.489 0 0 1 1.19-2H8.82A3 3 0 1 0 6 23zM18.81 32a5.511 5.511 0 0 1-.72-2H14a1 1 0 0 0-.83.45L11.46 33H8.82a3 3 0 1 0 0 2H12a1 1 0 0 0 .83-.45L14.54 32zM6 9A3 3 0 0 0 8.82 7h2.64l1.71 2.55A1 1 0 0 0 14 10h4.09a5.511 5.511 0 0 1 .72-2H14.54L12.83 5.45A1 1 0 0 0 12 5H8.82A3 3 0 1 0 6 9zM58 31a3 3 0 0 0-2.82 2H52.54l-1.71-2.55A1 1 0 0 0 50 30H45.91a5.511 5.511 0 0 1-.72 2h4.27l1.71 2.55A1 1 0 0 0 52 35h3.18A3 3 0 1 0 58 31zM58 17a3 3 0 0 0-2.82 2H50.46l1.19 2h3.53A3 3 0 1 0 58 17zM50 10a1 1 0 0 0 .83-.45L52.54 7h2.64a3 3 0 1 0 0-2H52a1 1 0 0 0-.83.45L49.46 8H45.19a5.511 5.511 0 0 1 .72 2z"/></svg>