<svg xmlns="http://www.w3.org/2000/svg" data-name="Layer 1" viewBox="0 0 512 512"><path d="M3.90869,141.73828,77.79755,182.041a7.44724,7.44724,0,0,0,.822.38452c.05688.0227.11456.0415.17181.06274q.32134.11976.65552.21045c.0758.02051.15124.04053.22748.05859.21276.0503.42907.08985.64843.12159.07288.01074.145.0249.218.03344a7.00749,7.00749,0,0,0,1.728,0c.07306-.00854.14514-.0227.218-.03344.21936-.03174.43567-.07129.64843-.12159.07624-.01806.15168-.03808.22748-.05859q.33444-.09045.65552-.21045c.05725-.02124.11493-.04.17181-.06274a7.44724,7.44724,0,0,0,.822-.38452l73.88886-40.30274a7.5,7.5,0,0,0,3.90869-6.584V47.81152c0-.03027-.00574-.05932-.0061-.08935a7.44705,7.44705,0,0,0-.24744-1.82349c-.01886-.071-.04047-.14111-.06134-.21167q-.10135-.342-.23712-.67724c-.02832-.07007-.05408-.14063-.08447-.21a7.543,7.543,0,0,0-.4065-.80371l-.00561-.00854-.01923-.029a7.55744,7.55744,0,0,0-.49609-.72217c-.04737-.06153-.0979-.12012-.14728-.18018q-.23071-.28125-.48358-.5354c-.049-.04907-.09656-.09912-.147-.147a7.44842,7.44842,0,0,0-1.48358-1.09326c-.02893-.01636-.05414-.03711-.08331-.053L84.99609.916a7.50147,7.50147,0,0,0-7.18261,0L3.90869,41.22754c-.02936.01611-.05475.03711-.0838.05322a7.45542,7.45542,0,0,0-1.48163,1.0918c-.0517.04883-.10028.1001-.15045.15039q-.25122.25232-.4801.53149c-.05017.061-.10144.12061-.1496.18311a7.52067,7.52067,0,0,0-.49512.7207l-.01941.0293-.00561.00854a7.543,7.543,0,0,0-.4065.80371c-.03039.06934-.05615.1399-.08447.21q-.13568.3358-.23712.67724c-.02087.07056-.04248.14063-.06134.21167A7.44705,7.44705,0,0,0,.0061,47.72217c-.00036.03-.0061.05908-.0061.08935V135.1543A7.5,7.5,0,0,0,3.90869,141.73828Zm143.90088-11.03613L88.90479,162.832V95.76221l58.90478-34.80713ZM81.40479,16.043l58.72064,32.0293L81.40479,82.77075,22.68414,48.07227ZM15,60.95508,73.90479,95.76221V162.832L15,130.70215ZM299.32037,479.10645c-.07226.01074-.2417.03808-.31347.05078a7.56494,7.56494,0,1,0,.31347-.05078Zm1.26856,8.51171-.16162-1.09375.17627,1.18067Zm211.405-439.896a7.44705,7.44705,0,0,0-.24744-1.82349c-.01886-.071-.04047-.14111-.06134-.21167q-.10136-.342-.23712-.67724c-.02832-.07007-.05408-.14063-.08447-.21a7.543,7.543,0,0,0-.4065-.80371l-.00561-.00854-.01935-.029a7.53238,7.53238,0,0,0-.49555-.72144c-.04785-.06226-.09887-.12134-.14868-.18188q-.22971-.27979-.4812-.53272c-.04987-.05-.0982-.10107-.14954-.14966a7.45207,7.45207,0,0,0-1.4812-1.09131c-.02935-.0166-.055-.03784-.08459-.054L434.18652.916a7.50147,7.50147,0,0,0-7.18261,0L353.09912,41.22754c-.03.01636-.05579.0376-.08545.05444a7.4464,7.4464,0,0,0-1.47876,1.0896c-.05267.04981-.10223.102-.15338.15332q-.24957.25086-.47705.52808c-.05078.06177-.10272.12207-.15143.1853a7.54209,7.54209,0,0,0-.49451.71973l-.01953.02954-.00561.00854a7.543,7.543,0,0,0-.4065.80371c-.03039.06934-.05615.1399-.08447.21q-.13568.3358-.23712.67724c-.02087.07056-.04248.14063-.06134.21167a7.44705,7.44705,0,0,0-.24744,1.82349c-.00036.03-.0061.05908-.0061.08935V135.1543a7.5,7.5,0,0,0,3.90869,6.584L426.988,182.041a7.44724,7.44724,0,0,0,.822.38452c.05688.0227.11456.0415.17181.06274q.32135.11976.65552.21045c.0758.02051.15124.04053.22748.05859.21276.0503.42907.08985.64843.12159.07288.01074.145.0249.218.03344a7.00749,7.00749,0,0,0,1.728,0c.07306-.00854.14514-.0227.218-.03344.21936-.03174.43567-.07129.64843-.12159.07624-.01806.15168-.03808.22748-.05859q.33444-.09045.65552-.21045c.05725-.02124.11493-.04.17181-.06274a7.44724,7.44724,0,0,0,.822-.38452l73.88886-40.30274A7.5,7.5,0,0,0,512,135.1543V47.81152C512,47.78125,511.99426,47.7522,511.9939,47.72217ZM423.09521,162.832l-58.90478-32.12988V60.95508l58.90478,34.80713Zm7.5-80.06128L371.87457,48.07227,430.59521,16.043l58.72065,32.0293ZM497,130.70215,438.09521,162.832V95.76221L497,60.95508ZM22.98,294.00659c.14795,0,.29736-.0039.44727-.01269a7.5,7.5,0,0,0,7.04638-7.92774c-.002-.03613-.01074-.17285-.01318-.209a7.50009,7.50009,0,0,0-14.96191,1.06738l7.48828-.418L15.5,286.947A7.49962,7.49962,0,0,0,22.98,294.00659Zm2.28516-59.72949a7.49272,7.49272,0,0,0,8.80761-5.90918c.00293-.01367.02442-.125.02735-.13867a7.50009,7.50009,0,0,0-14.7334-2.81641l7.34766,1.50586-7.3584-1.44922A7.49949,7.49949,0,0,0,25.26514,234.2771Zm-9.78223,21.667c-.00244.03613-.01123.17285-.01318.209a7.504,7.504,0,0,0,7.04589,7.93261c.1504.00879.29981.0127.44825.0127a7.55047,7.55047,0,1,0-7.481-8.1543ZM212.1239,35.877a7.50875,7.50875,0,1,0-1.47363-14.85547c-.0708.01465-.23731.05372-.30762.07032A7.49945,7.49945,0,0,0,212.1239,35.877Zm115.29559,436.8252a7.49959,7.49959,0,0,0,4.07959,14.43359c.06836-.01855.23145-.0664.29932-.08789a7.49962,7.49962,0,0,0-4.37891-14.3457Zm.867-433.55176c.07715.02441.25.0752.32812.0957a7.56013,7.56013,0,1,0-.32812-.0957ZM271.411,30.10645c.07568.002.1499.00293.22461.00293a7.50017,7.50017,0,0,0,.2168-14.99708l-.09961-.00292a7.46633,7.46633,0,0,0-7.66748,7.27832A7.543,7.543,0,0,0,271.411,30.10645Zm28.76758,2.707a7.50034,7.50034,0,0,0,2.55469-14.78125c-.07178-.0127-.24121-.04-.31348-.05078a7.50025,7.50025,0,0,0-2.24121,14.832Zm-58.55078-1.7168c.22119,0,.44385-.00879.668-.0293.07666-.00683.25244-.02441.3291-.0332a7.5223,7.5223,0,1,0-.99707.0625ZM183.38757,44.44531a7.52643,7.52643,0,1,0-2.32519-14.63965c-.05371.01954-.20069.07227-.25391.09278a7.50751,7.50751,0,0,0,2.5791,14.54687ZM19.44727,317.6228a7.44261,7.44261,0,0,0,7.32177,6.00489,7.5237,7.5237,0,1,0-1.39062-14.918,7.49952,7.49952,0,0,0-5.9585,8.77441C19.42285,317.4978,19.44434,317.60913,19.44727,317.6228ZM270.43121,481.88086l-.10205.00293a7.50021,7.50021,0,0,0,.21924,14.99707c.07568,0,.15186-.001.228-.00293l-.12451-7.5.2207,7.49707a7.50032,7.50032,0,0,0-.44141-14.99414Zm209.496-292.8457a7.49978,7.49978,0,0,0-5.39209,9.13379c.01367.05273.05322.20214.06836.25488a7.55557,7.55557,0,0,0,7.24658,5.50781,7.49364,7.49364,0,0,0,7.21435-9.48926l-7.2666,1.85547,7.2627-1.87109A7.498,7.498,0,0,0,479.92725,189.03516ZM496.99951,255.5a7.4574,7.4574,0,0,0-7.5-7.4502,7.54242,7.54242,0,0,0-7.5,7.54981c0,.08594.00147.17187.0044.25684-.00245.08105-.00391.1621-.00391.24316a7.5,7.5,0,0,0,15,0V256c0-.07031-.001-.13965-.00293-.209.00147-.06348.00244-.12793.00244-.19141ZM212.98444,476.43848c-.07764-.01856-.25245-.0586-.33008-.0752a7.56494,7.56494,0,1,0,.33008.0752Zm-1.99463,8.22851.0122-.05761.21534-.88184Zm30.46093-3.68554a7.5002,7.5002,0,0,0-1.68408,14.90527c.07666.00879.25244.02637.3291.0332.22413.02051.44678.0293.66748.0293a7.50062,7.50062,0,0,0,.6875-14.96777Zm35.73969-279.1543V193.5a7.5,7.5,0,0,0-15,0v6.7041h-8.46924V193.5a7.5,7.5,0,0,0-15,0v6.7041h-14.6084a7.5,7.5,0,0,0,0,15h2.90088v81.5918h-2.90088a7.5,7.5,0,1,0,0,15h14.6084V318.5a7.5,7.5,0,0,0,15,0v-6.7041h8.46924V318.5a7.5,7.5,0,0,0,15,0v-8.32715a27.54586,27.54586,0,0,0,18.19678-25.87695V276a27.42026,27.42026,0,0,0-8.655-20,27.42026,27.42026,0,0,0,8.655-20v-8.2959A27.54586,27.54586,0,0,0,277.19043,201.82715Zm3.19678,82.46875a12.51408,12.51408,0,0,1-12.5,12.5H242.01367V263.5h25.87354a12.51408,12.51408,0,0,1,12.5,12.5Zm0-48.2959a12.51408,12.51408,0,0,1-12.5,12.5H242.01367V215.2041h25.87354a12.51408,12.51408,0,0,1,12.5,12.5ZM511.74646,374.93286c-.01886-.071-.04047-.14111-.06134-.21167q-.10136-.342-.23712-.67724c-.02832-.07007-.05408-.14063-.08447-.21a7.543,7.543,0,0,0-.4065-.80371l-.00561-.00854-.01935-.029a7.56678,7.56678,0,0,0-.49561-.72168c-.04773-.062-.09863-.12085-.14831-.1814q-.23007-.28052-.48236-.53394c-.04932-.04956-.09711-.09985-.14795-.14795a7.432,7.432,0,0,0-1.48389-1.09326c-.02869-.01611-.05371-.03686-.08264-.05273L434.18652,329.9502a7.50147,7.50147,0,0,0-7.18261,0l-73.90479,40.31152c-.02985.01636-.05566.0376-.0852.0542a7.4538,7.4538,0,0,0-1.47882,1.0896c-.05274.05-.10242.102-.15357.15356q-.24984.25122-.4776.52881c-.05048.06128-.10211.12109-.15057.18408a7.54341,7.54341,0,0,0-.49488.72046l-.01947.0293-.00561.00854a7.543,7.543,0,0,0-.4065.80371c-.03039.06934-.05615.1399-.08447.21q-.13568.3358-.23712.67724c-.02087.07056-.04248.14063-.06134.21167a7.44705,7.44705,0,0,0-.24744,1.82349c-.00036.03-.0061.05908-.0061.08935v87.34278a7.5,7.5,0,0,0,3.90869,6.584L426.988,511.0752a7.44724,7.44724,0,0,0,.822.38452c.05688.0227.11456.0415.17181.06274q.32135.11974.65552.21045c.0758.02051.15124.04053.22748.05859.21276.0503.42907.08985.64843.12159.07288.01074.145.0249.218.03344a7.00749,7.00749,0,0,0,1.728,0c.07306-.00854.14514-.0227.218-.03344.21936-.03174.43567-.07129.64843-.12159.07624-.01806.15168-.03808.22748-.05859q.33444-.09045.65552-.21045c.05725-.02124.11493-.04.17181-.06274a7.44724,7.44724,0,0,0,.822-.38452l73.88886-40.30274A7.5,7.5,0,0,0,512,464.18848V376.8457c0-.03027-.00574-.05932-.0061-.08935A7.44705,7.44705,0,0,0,511.74646,374.93286ZM423.09521,491.86621l-58.90478-32.12988V389.98926l58.90478,34.8081Zm7.5-80.0603-58.72076-34.69946,58.72076-32.0293,58.72077,32.0293ZM497,459.73633l-58.90479,32.12988V424.79736L497,389.98926ZM494.981,224.668a7.4573,7.4573,0,0,0-8.37207-6.40723,7.525,7.525,0,1,0,8.395,6.58789C495.001,224.82129,494.98486,224.69531,494.981,224.668ZM162.556,374.93286c-.01886-.071-.04047-.14111-.06134-.21167q-.10135-.342-.23712-.67724c-.02832-.07007-.05408-.14063-.08447-.21a7.543,7.543,0,0,0-.4065-.80371l-.00561-.00854-.01923-.029a7.53823,7.53823,0,0,0-.49609-.72217c-.04737-.06153-.09772-.11988-.147-.17969q-.23117-.28235-.48474-.53662c-.04852-.04883-.09546-.09815-.14544-.14551a7.43975,7.43975,0,0,0-1.48627-1.09521c-.02826-.01587-.05286-.03614-.08136-.05176L84.99609,329.9502a7.50147,7.50147,0,0,0-7.18261,0L3.90869,370.26172c-.03009.01636-.056.03784-.08581.05469a7.45473,7.45473,0,0,0-1.47712,1.08813c-.05358.05078-.10412.10376-.15606.156q-.24839.24975-.47492.52588c-.05114.062-.10345.1228-.15252.18652a7.53975,7.53975,0,0,0-.494.71924l-.01966.02954-.00561.00854a7.543,7.543,0,0,0-.4065.80371c-.03039.06934-.05615.1399-.08447.21q-.13568.3358-.23712.67724c-.02087.07056-.04248.14063-.06134.21167a7.44705,7.44705,0,0,0-.24744,1.82349c-.00036.03-.0061.05908-.0061.08935v87.34278a7.5,7.5,0,0,0,3.90869,6.584L77.79755,511.0752a7.44724,7.44724,0,0,0,.822.38452c.05688.0227.11456.0415.17181.06274q.32134.11974.65552.21045c.0758.02051.15124.04053.22748.05859.21276.0503.42907.08985.64843.12159.07288.01074.145.0249.218.03344a7.00749,7.00749,0,0,0,1.728,0c.07306-.00854.14514-.0227.218-.03344.21936-.03174.43567-.07129.64843-.12159.07624-.01806.15168-.03808.22748-.05859q.33444-.09045.65552-.21045c.05725-.02124.11493-.04.17181-.06274a7.44724,7.44724,0,0,0,.822-.38452l73.88886-40.30274a7.5,7.5,0,0,0,3.90869-6.584V376.8457c0-.03027-.00574-.05932-.0061-.08935A7.44705,7.44705,0,0,0,162.556,374.93286ZM73.90479,491.86621,15,459.73633V389.98926l58.90479,34.8081Zm7.5-80.0603L22.684,377.10645l58.72077-32.0293,58.72076,32.0293Zm66.40478,47.93042L88.90479,491.86621V424.79736l58.90478-34.8081ZM41.397,200.2478a7.50022,7.50022,0,0,0-14.23047-4.74414c-.00341.01172-.03857.11719-.042.12891a7.49342,7.49342,0,0,0,7.11572,9.78808A7.57309,7.57309,0,0,0,41.397,200.2478ZM369.77246,256A113.77246,113.77246,0,1,0,256,369.77246,113.90127,113.90127,0,0,0,369.77246,256ZM256,354.77246A98.77246,98.77246,0,1,1,354.77246,256,98.88456,98.88456,0,0,1,256,354.77246Zm227.79639-46.82031a7.55912,7.55912,0,1,0,5.33886,9.33594c.00928-.03418.04346-.165.05225-.19922A7.50223,7.50223,0,0,0,483.79639,307.95215Zm4.79736-29.53711a7.50329,7.50329,0,0,0-8.41895,6.45117c-.0039.02734-.02.15332-.02294.18067a7.49993,7.49993,0,0,0,14.88916,1.81835l-7.43116-1.01464,7.43506.98437A7.50084,7.50084,0,0,0,488.59375,278.415ZM185.14459,468.21777c-.06445-.02441-.22363-.082-.28906-.10449a7.56415,7.56415,0,1,0,.28906.10449Zm-3.11865,8.31641.03906-.10938.44629-1.18457Z"/></svg>