<svg xmlns="http://www.w3.org/2000/svg" enable-background="new 0 0 184.75 237.604" viewBox="0 0 184.75 237.604"><path d="M53.136 224.236c-.555 6.807 4.514 12.772 11.318 13.327 6.805.554 12.773-4.51 13.328-11.317l3.871-47.468c-5.849-1.919-16.147-6.707-23.955-10.487L53.136 224.236zM99.642 226.245c.555 6.808 6.523 11.872 13.328 11.317 6.805-.555 11.873-6.52 11.318-13.327l-4.563-55.946c-7.807 3.78-18.105 8.567-23.955 10.487L99.642 226.245zM132.259 25.224l-.003 6.865-4.413 1.471v2.366H115.41C112.727 15.384 101.796 0 88.712 0 75.628 0 64.697 15.384 62.015 35.926H32.755c-.954-3.138-3.783-5.493-7.247-5.667-3.759-.191-7.012 2.233-8.049 5.667H7V25.268H0v28h7V42.61h9.88l-1.428 28.485c-.02.403-.002.812.041 1.222.086.849.304 1.66.637 2.412.02.045.036.091.057.135.162.348.351.679.559.998.049.075.097.148.148.221.211.3.438.587.687.856.051.055.106.106.159.159.253.258.52.5.806.722.023.018.043.038.066.055.308.234.638.439.979.627.056.031.11.061.166.091.339.176.69.331 1.055.458.053.019.107.033.161.05.335.109.679.197 1.033.261.056.01.11.025.165.034.285.046.575.079.87.094.12.006.239.008.357.009.013 0 .025.003.038.003.029 0 .059-.005.088-.006.284-.003.563-.022.839-.054.081-.01.163-.024.244-.036.25-.037.496-.084.738-.144.043-.011.086-.014.13-.025l25.085-6.595c-6.458-4.531-12.395-9.024-15.812-12.387l-2.771.729.921-18.373h28.55c-.042 1.031-.07 2.068-.07 3.116 0 .305.015.604.031.901.056 1.061.213 2.074.459 3.042-6.589 1.085-14.669 3.772-23.845 9.557 9.938 9.04 35.675 25.196 41.63 28.895l9.077-13.89 8.867 13.95c5.059-.438 30.355-3.005 39.651-11.039-7.799-16.501-18.653-23.146-22.511-25.081.406-.914.725-1.878.946-2.892.237-1.091.364-2.238.364-3.444 0-1.048-.029-2.085-.07-3.116h11.868v2.366l4.407 1.469-.003 6.691.013.177c.313 2.188 2.332 6.323 7.737 6.323h44.753v-2.5h-44.753c-4.288 0-5.127-3.435-5.25-4.103v-6.147h50.003v-2.5h-50.003V34.151h50.003v-2.5h-50.003v-6.149c.106-.582.927-4.101 5.25-4.101h44.753v-2.5h-44.753C134.591 18.901 132.572 23.037 132.259 25.224zM88.712 54c-9.251 0-16.75-8.451-16.75-18.875s7.499-18.875 16.75-18.875c9.251 0 16.75 8.451 16.75 18.875S97.963 54 88.712 54zM127.946 139.591c.139 4.328 3.691 7.742 7.991 7.742.087 0 .175-.001.263-.004 4.416-.143 7.88-3.838 7.738-8.254-.756-23.458-3.656-42.524-8.644-56.979-4.199 2.361-9.578 4.144-14.974 5.478C123.981 98.335 127.144 114.71 127.946 139.591z"/><path d="M96.921,91.246l-0.891,0.063l-7.335-11.54l-8.128,12.439l-1.243-0.763c-0.689-0.423-8.954-5.505-18.405-11.762
		l-10.54,82.436c0,0,30.333,15.213,35,15.213l3.333-3.651h0l3.333,3.651c4.667,0,35-15.213,35-15.213l-9.45-73.911
		C107.289,90.487,97.648,91.196,96.921,91.246z"/><ellipse cx="88.712" cy="35.125" rx="13.75" ry="15.875"/></svg>