<svg xmlns="http://www.w3.org/2000/svg" width="64" height="64" fill="none" viewBox="0 0 64 64"><path fill="#000" fill-rule="evenodd" d="M12.1494 10.4743C12.3316 10.1795 12.6534 10 13 10H51C51.3466 10 51.6684 10.1795 51.8507 10.4743C52.0329 10.7691 52.0494 11.1372 51.8944 11.4472L50 15.2361V48.7639L51.8944 52.5528C52.0494 52.8628 52.0329 53.2309 51.8507 53.5257C51.6684 53.8205 51.3466 54 51 54H13C12.6534 54 12.3316 53.8205 12.1494 53.5257C11.9671 53.2309 11.9506 52.8628 12.1056 52.5528L14 48.7639V15.2361L12.1056 11.4472C11.9506 11.1372 11.9671 10.7691 12.1494 10.4743ZM16 16V48H48V16H16ZM14.618 12L15.618 14H48.382L49.382 12H14.618ZM15.618 50L14.618 52H49.382L48.382 50H15.618ZM33 42.9552V35C36.3137 35 39 32.3137 39 29V28C39 27.4477 38.5523 27 38 27H37C34.913 27 33.0749 28.0655 32 29.6822C30.9251 28.0655 29.087 27 27 27H26C25.4477 27 25 27.4477 25 28V29C25 32.3137 27.6863 35 31 35V42.9552C25.3935 42.4499 21 37.738 21 32C21 25.9249 25.9249 21 32 21C38.0751 21 43 25.9249 43 32C43 37.738 38.6065 42.4499 33 42.9552ZM33 33C35.2091 33 37 31.2091 37 29C34.7909 29 33 30.7909 33 33ZM27 29C29.2091 29 31 30.7909 31 33C28.7909 33 27 31.2091 27 29ZM45 32C45 39.1797 39.1797 45 32 45C24.8203 45 19 39.1797 19 32C19 24.8203 24.8203 19 32 19C39.1797 19 45 24.8203 45 32Z" clip-rule="evenodd"/></svg>