<svg xmlns="http://www.w3.org/2000/svg" viewBox="0 0 64 64"><path d="M36.28,55.22A5.8,5.8,0,0,1,32,57a6.06,6.06,0,0,1-4.31-1.88,1,1,0,0,0-1.44,1.4A8.06,8.06,0,0,0,32,59h.08a7.8,7.8,0,0,0,5.63-2.38,1,1,0,0,0-1.44-1.4Z"/><path d="M28.29,53.06a1,1,0,0,0,0,1.41A5.18,5.18,0,0,0,32,56.09H32a5.06,5.06,0,0,0,3.66-1.55,1,1,0,0,0,0-1.42,1,1,0,0,0-1.41,0,3,3,0,0,1-2.26.94,3.22,3.22,0,0,1-2.3-1A1,1,0,0,0,28.29,53.06Z"/><ellipse cx="31.96" cy="51.45" rx="1.41" ry="1.46" transform="rotate(-17.33 31.972 51.47)"/><path d="M59,23H43a1,1,0,0,0-1,1v1H40V23a3,3,0,0,0-3-3H36V18h3a1,1,0,0,0,1-1V10a1,1,0,0,0-1-1H37V6a1,1,0,0,0-1-1H28a1,1,0,0,0-1,1V9H25a1,1,0,0,0-1,1v7a1,1,0,0,0,1,1h3v2H27a3,3,0,0,0-3,3v2H22V24a1,1,0,0,0-1-1H5a1,1,0,0,0-1,1V34a1,1,0,0,0,1,1H21a1,1,0,0,0,1-1V33h2v2a3,3,0,0,0,3,3h1v2.08A8,8,0,0,0,24,47a1,1,0,0,0,1,1H39a1,1,0,0,0,1-1,8,8,0,0,0-4-6.92V38h1a3,3,0,0,0,3-3V33h2v1a1,1,0,0,0,1,1H59a1,1,0,0,0,1-1V24A1,1,0,0,0,59,23ZM8,33H6V30H8Zm4-5H10V25h2Zm4,5H14V30h2Zm4-5H18V25h2Zm4,3H22V27h2Zm6-13h4v2H30ZM29,7h6V9H29Zm1,32.26V38h4v1.26a7.82,7.82,0,0,0-4,0ZM42,31H40V27h2Zm4,2H44V30h2Zm4-5H48V25h2Zm4,5H52V30h2Zm4-5H56V25h2Z"/></svg>