<svg xmlns="http://www.w3.org/2000/svg" enable-background="new 0 0 100 100" viewBox="0 0 100 100"><path d="M73,13H27c0-2.21,1.79-4,4-4h38C71.21,9,73,10.79,73,13z M27,83h46v4c0,2.21-1.79,4-4,4H31c-2.21,0-4-1.79-4-4V83z M48,87
	c0,0.53,0.21,1.03,0.58,1.41C48.96,88.79,49.47,89,50,89s1.03-0.21,1.41-0.59C51.79,88.04,52,87.53,52,87
	c0-0.13-0.01-0.26-0.04-0.39c-0.02-0.13-0.06-0.26-0.11-0.38c-0.05-0.12-0.12-0.23-0.19-0.34c-0.07-0.11-0.15-0.21-0.25-0.3
	c-0.46-0.47-1.15-0.68-1.8-0.55c-0.13,0.02-0.25,0.06-0.38,0.11c-0.12,0.05-0.23,0.11-0.34,0.19c-0.11,0.07-0.21,0.15-0.31,0.25
	c-0.09,0.09-0.17,0.19-0.24,0.3c-0.08,0.11-0.14,0.22-0.19,0.34c-0.05,0.12-0.09,0.25-0.11,0.38C48.01,86.74,48,86.87,48,87z M27,17
	h46v62H27V17z M33,40c0,9.37,7.63,17,17,17s17-7.63,17-17s-7.63-17-17-17S33,30.63,33,40z M31,73c0,1.1,0.9,2,2,2h34
	c1.1,0,2-0.9,2-2v-8c0-1.1-0.9-2-2-2H33c-1.1,0-2,0.9-2,2V73z M45,46.19c0.25-0.14,0.41-0.41,0.41-0.69v-0.39
	c-0.99-0.88-1.74-2.04-2.17-3.34c-0.72-0.58-1.17-1.46-1.17-2.42v-2.23c0-0.75,0.27-1.46,0.74-2.01v-0.77
	c0-1.22,0.38-2.39,1.07-3.28c1.68-2.2,4.27-2.98,6.12-2.98s4.43,0.78,6.12,2.98c0.69,0.89,1.07,2.06,1.07,3.28v0.77
	c0.47,0.55,0.74,1.26,0.74,2.01v2.23c0,0.96-0.45,1.84-1.17,2.42c-0.43,1.3-1.18,2.45-2.17,3.34v0.39c0,0.28,0.16,0.55,0.41,0.69
	l4.58,2.57C61.69,46.45,63,43.38,63,40c0-7.17-5.83-13-13-13s-13,5.83-13,13c0,3.38,1.31,6.45,3.42,8.76L45,46.19z M53.04,49.67
	c-1.51-0.85-2.45-2.44-2.45-4.17v-1.37c0-0.68,0.35-1.31,0.92-1.68c0.8-0.51,1.37-1.4,1.58-2.42c0.11-0.52,0.42-0.97,0.84-1.25
	v-1.15c-0.46-0.37-0.74-0.94-0.74-1.55v-1.74c0-0.33-0.09-0.65-0.24-0.85c-0.8-1.04-2.09-1.41-2.95-1.41s-2.15,0.37-2.95,1.41
	c-0.15,0.2-0.24,0.52-0.24,0.85v1.74c0,0.61-0.28,1.18-0.74,1.55v1.15c0.42,0.28,0.73,0.73,0.84,1.25c0.21,1.02,0.78,1.91,1.58,2.42
	c0.57,0.37,0.92,1,0.92,1.68v1.37c0,1.72-0.94,3.32-2.45,4.17l-2.65,1.49l-0.48,0.28C45.66,52.43,47.77,53,50,53
	s4.34-0.57,6.17-1.56l-0.48-0.28L53.04,49.67z M41,67h-6v4h6V67z M65,67H45v4h20V67z"/></svg>