<?xml version="1.0" encoding="iso-8859-1"?>
<!-- Generator: Adobe Illustrator 19.0.0, SVG Export Plug-In . SVG Version: 6.00 Build 0)  -->
<svg version="1.1" id="Layer_1" xmlns="http://www.w3.org/2000/svg" xmlns:xlink="http://www.w3.org/1999/xlink" x="0px" y="0px"
	 viewBox="0 0 392.598 392.598" style="enable-background:new 0 0 392.598 392.598;" xml:space="preserve">
<path style="fill:#FFFFFF;" d="M228.396,359.822L228.396,359.822c0.065,6.012-4.784,10.925-10.861,10.925H32.711
	c-6.012,0-10.925-4.848-10.925-10.925V32.711c0-6.012,4.848-10.925,10.925-10.925h184.824c6.012,0,10.925,4.848,10.925,10.925v42.99
	c-46.287,17.261-79.451,61.867-79.451,114.101s33.034,96.905,79.386,114.101V359.822z"/>
<path style="fill:#FFC10D;" d="M270.739,89.859c8.275,0,16.226,1.099,23.855,3.038l-33.293,90.893l-69.236,67.362
	c-13.188-16.937-21.204-38.141-21.204-61.349C170.861,134.659,215.661,89.859,270.739,89.859z"/>
<g>
	<path style="fill:#FFFFFF;" d="M270.481,205.253l61.608,63.289c-16.873,13.253-38.141,21.204-61.349,21.204
		c-24.113,0-46.287-8.598-63.612-22.885L270.481,205.253z"/>
	<path style="fill:#FFFFFF;" d="M286.449,178.877l28.768-78.481c29.737,14.804,51.135,44.024,54.885,78.481H286.449z"/>
</g>
<path style="fill:#56ACE0;" d="M370.166,200.663c-2.198,19.976-10.214,38.077-22.368,52.687l-51.2-52.687H370.166z"/>
<path style="fill:#194F82;" d="M155.41,64H94.901c-6.012,0-10.925-4.848-10.925-10.925c0-6.012,4.848-10.925,10.925-10.925h60.509
	c6.012,0,10.925,4.848,10.925,10.925C166.271,59.087,161.422,64,155.41,64z"/>
<path style="fill:#56ACE0;" d="M206.545,72.081v14.416c-34.521,21.527-57.535,59.733-57.535,103.305
	c0,30.19,11.055,57.859,29.349,79.192H43.572v-82.23h28.832c6.077,0,10.925-4.913,10.925-10.925c0-6.077-4.913-10.925-10.925-10.925
	H43.572v-37.172h61.543c6.077,0,10.925-4.913,10.925-10.925c0-6.077-4.913-10.925-10.925-10.925H43.572v-33.81
	C43.572,72.081,206.545,72.081,206.545,72.081z"/>
<g>
	<path style="fill:#194F82;" d="M125.091,285.026c-18.036,0-32.711,14.675-32.711,32.711c0,18.036,14.675,32.711,32.711,32.711
		s32.711-14.675,32.711-32.711C157.802,299.701,143.192,285.026,125.091,285.026z M125.091,328.727
		c-6.012,0-10.925-4.848-10.925-10.925s4.848-10.925,10.925-10.925s10.925,4.849,10.925,10.925S131.103,328.727,125.091,328.727z"/>
	<path style="fill:#194F82;" d="M270.739,68.073c-7.046,0-13.834,0.646-20.558,1.745V32.711C250.182,14.675,235.507,0,217.471,0
		H32.711C14.675,0,0,14.675,0,32.711v327.111c0,18.101,14.675,32.776,32.711,32.776h184.824c18.036,0,32.711-14.675,32.711-32.711
		v-50.101c6.659,1.164,13.511,1.745,20.558,1.745c67.168,0,121.794-54.626,121.794-121.794S337.907,68.073,270.739,68.073z
		 M370.101,178.877h-83.653l28.768-78.481C344.954,115.2,366.352,144.42,370.101,178.877z M270.739,89.859
		c8.275,0,16.226,1.099,23.855,3.038l-33.293,90.893l-69.236,67.362c-13.188-16.937-21.204-38.141-21.204-61.349
		C170.861,134.659,215.661,89.859,270.739,89.859z M228.461,359.822c0,6.012-4.848,10.925-10.925,10.925H32.711
		c-6.012,0-10.925-4.848-10.925-10.925V32.711c0-6.012,4.848-10.925,10.925-10.925h184.824c6.012,0,10.925,4.848,10.925,10.925
		v42.99c-46.287,17.261-79.451,61.867-79.451,114.101s33.034,96.905,79.386,114.101L228.461,359.822L228.461,359.822z
		 M270.739,289.745c-24.113,0-46.287-8.598-63.612-22.885l63.354-61.608l61.608,63.289
		C315.216,281.794,293.948,289.745,270.739,289.745z M347.798,253.349l-51.2-52.687h73.568
		C367.968,220.638,359.952,238.739,347.798,253.349z"/>
</g>
<g>
</g>
<g>
</g>
<g>
</g>
<g>
</g>
<g>
</g>
<g>
</g>
<g>
</g>
<g>
</g>
<g>
</g>
<g>
</g>
<g>
</g>
<g>
</g>
<g>
</g>
<g>
</g>
<g>
</g>
</svg>
