<?xml version="1.0" encoding="iso-8859-1"?>
<!-- Generator: Adobe Illustrator 19.0.0, SVG Export Plug-In . SVG Version: 6.00 Build 0)  -->
<svg version="1.1" id="Layer_1" xmlns="http://www.w3.org/2000/svg" xmlns:xlink="http://www.w3.org/1999/xlink" x="0px" y="0px"
	 viewBox="0 0 496.246 496.246" style="enable-background:new 0 0 496.246 496.246;" xml:space="preserve">
<path style="fill:#79AAA7;" d="M373.847,262.376c0,7.404-6.002,13.414-13.407,13.414H135.806c-7.404,0-13.414-6.002-13.414-13.414
	v-46.939c0-7.412,6.002-13.414,13.414-13.414h224.642c7.396,0,13.407,5.994,13.407,13.414v46.939H373.847z"/>
<path style="fill:#BA0F0F;" d="M397.367,192.792c0,5.868-7.475,10.634-16.699,10.634H115.562c-9.224,0-16.691-4.758-16.691-10.634
	v-15.959c0-5.868,7.467-10.634,16.691-10.634h265.106c9.224,0,16.699,4.758,16.699,10.634L397.367,192.792L397.367,192.792z"/>
<path style="fill:#79AAA7;" d="M356.147,175.927c0,9.224-24.182,41.748-33.398,41.748H173.497c-9.224,0-33.398-32.524-33.398-41.748
	l16.699-89.765c0-9.224,7.483-16.699,16.707-16.699h149.244c9.216,0,16.699,7.475,16.699,16.699L356.147,175.927z"/>
<path style="fill:#5B8985;" d="M322.749,69.471c9.216,0,16.699,7.475,16.699,16.699l16.707,89.765
	c0,9.224-24.182,41.748-33.398,41.748h-149.26c-9.224,0-33.398-32.524-33.398-41.748"/>
<path style="fill:#BA0F0F;" d="M322.749,230.199H173.497c-17.471,0-45.922-39.637-45.922-54.272l0.213-2.3l16.518-88.773
	c0.685-15.51,13.517-27.908,29.192-27.908h149.244c15.667,0,28.507,12.406,29.192,27.908l16.731,91.073
	C368.672,190.555,340.196,230.199,322.749,230.199z M175.206,205.143h145.841c6.12-3.836,19.842-21.78,22.378-29.184l-16.502-89.797
	c0-2.292-1.867-4.167-4.175-4.167H173.497c-2.308,0-4.183,1.875-4.183,4.167l-0.213,2.3l-16.274,87.505
	C155.357,183.371,169.094,201.307,175.206,205.143z"/>
<path style="fill:#7F1105;" d="M322.749,80.947H173.497c-15.675,0-28.507,12.406-29.192,27.908L130.009,185.6
	c7.239,17.652,29.082,44.591,43.488,44.591h149.244c14.312,0,35.974-26.608,43.347-44.276l-14.155-77.06
	C351.256,93.353,338.408,80.947,322.749,80.947z M343.418,199.967c-2.536,7.404-16.258,25.34-22.378,29.184H175.206
	c-6.113-3.836-19.85-21.78-22.378-29.184l3.269-17.597c-1.489-2.473-2.694-4.734-3.269-6.404l16.282-87.505l0.213-2.3
	c0-2.292,1.875-4.167,4.183-4.167h149.244c2.3,0,4.175,1.875,4.175,4.167l16.502,89.797c-0.559,1.662-1.757,3.899-3.253,6.357
	L343.418,199.967z"/>
<path style="fill:#343F3F;" d="M413.026,330.039c0,9.224-7.483,16.707-16.707,16.707H99.927c-9.224,0-16.707-7.483-16.707-16.707
	l0,0c0-9.224,7.483-16.699,16.707-16.699h296.401C405.543,313.348,413.026,320.815,413.026,330.039L413.026,330.039z"/>
<path style="fill:#931C0C;" d="M217.852,202.37c0,14.407-11.666,26.088-26.088,26.088H72.783c-14.423,0-17.739-11.681-17.739-26.088
	l0,0c0-14.415,11.666-26.096,26.088-26.096h110.639C206.178,176.274,217.852,187.955,217.852,202.37L217.852,202.37z"/>
<path style="fill:#7F1105;" d="M191.764,176.274c14.415,0,26.088,11.681,26.088,26.096l0,0c0,14.407-11.666,26.088-26.088,26.088
	H72.783c-14.423,0-17.739-11.681-17.739-26.088l0,0"/>
<path style="fill:#931C0C;" d="M278.386,202.37c0,14.407,11.674,26.088,26.088,26.088h118.989c14.423,0,17.747-11.681,17.747-26.088
	l0,0c0-14.415-11.682-26.096-26.088-26.096H304.475C290.068,176.274,278.386,187.955,278.386,202.37L278.386,202.37z"/>
<path style="fill:#7F1105;" d="M304.475,176.274c-14.407,0-26.088,11.681-26.088,26.096l0,0c0,14.407,11.674,26.088,26.088,26.088
	h118.989c14.423,0,17.747-11.681,17.747-26.088l0,0"/>
<path style="fill:#B21606;" d="M365.017,328.661c0,23.056-18.692,23.654-41.748,23.654H172.977
	c-23.064,0-41.748-0.599-41.748-23.654V171.398c0-23.056,18.684-41.748,41.748-41.748h150.292c23.056,0,41.748,18.692,41.748,41.748
	V328.661z"/>
<g>
	<path style="fill:#C91911;" d="M131.23,171.398c0-23.056,18.684-41.748,41.748-41.748h150.292
		c23.056,0,41.748,18.692,41.748,41.748"/>
	<path style="fill:#C91911;" d="M131.23,189.137c0-23.056,18.684-41.74,41.748-41.74h150.292c23.056,0,41.748,18.692,41.748,41.74"
		/>
</g>
<path style="fill:#EA1F1F;" d="M172.977,147.397h150.292c16.683,0,30.98,9.854,37.644,24.001h4.104
	c0-23.056-18.692-41.748-41.748-41.748H172.977c-23.064,0-41.748,18.692-41.748,41.748h4.096
	C141.989,157.251,156.294,147.397,172.977,147.397z"/>
<g>
	<path style="fill:#7F1105;" d="M312.123,273.696c0,2.686-2.158,4.868-4.86,4.868H188.991c-2.686,0-4.876-2.182-4.876-4.868l0,0
		c0-2.686,2.19-4.876,4.876-4.876h118.272C309.965,268.82,312.123,271.009,312.123,273.696L312.123,273.696z"/>
	<path style="fill:#7F1105;" d="M312.123,297.704c0,2.686-2.158,4.86-4.86,4.86H188.991c-2.686,0-4.876-2.174-4.876-4.86l0,0
		c0-2.694,2.19-4.876,4.876-4.876h118.272C309.965,292.829,312.123,295.01,312.123,297.704L312.123,297.704z"/>
	<path style="fill:#7F1105;" d="M312.123,321.713c0,2.686-2.158,4.86-4.86,4.86H188.991c-2.686,0-4.876-2.174-4.876-4.86l0,0
		c0-2.694,2.19-4.876,4.876-4.876h118.272C309.965,316.837,312.123,319.011,312.123,321.713L312.123,321.713z"/>
</g>
<circle style="fill:#ABD8D8;" cx="161.501" cy="207.584" r="37.573"/>
<path style="fill:#87C1BF;" d="M199.066,207.584c0,20.756-16.841,37.573-37.573,37.573c-20.748,0-37.573-16.817-37.573-37.573"/>
<path style="fill:#4C5454;" d="M161.501,253.515c-25.324,0-45.938-20.606-45.938-45.93c0-25.309,20.614-45.915,45.938-45.915
	c25.309,0,45.915,20.606,45.915,45.915C207.415,232.909,186.809,253.515,161.501,253.515z M161.501,178.369
	c-16.116,0-29.231,13.107-29.231,29.215c0,16.116,13.115,29.231,29.231,29.231c16.108,0,29.208-13.115,29.208-29.231
	C190.708,191.476,177.609,178.369,161.501,178.369z"/>
<path style="fill:#343F3F;" d="M161.501,177.668c-22.599,0-41.377,16.415-45.174,37.927c3.797,21.504,22.583,37.912,45.174,37.912
	c22.583,0,41.37-16.408,45.158-37.912C202.87,194.083,184.084,177.668,161.501,177.668z M190.708,223.59
	c0,16.116-13.099,29.231-29.208,29.231c-16.116,0-29.231-13.115-29.231-29.231c0-2.788,0.52-5.435,1.26-7.995
	c-0.733-2.56-1.26-5.222-1.26-8.011c0-16.108,13.115-29.215,29.231-29.215c16.108,0,29.208,13.107,29.208,29.215
	c0,2.788-0.512,5.451-1.252,8.011C190.196,218.155,190.708,220.802,190.708,223.59z"/>
<circle style="fill:#ABD8D8;" cx="334.746" cy="207.584" r="37.573"/>
<path style="fill:#87C1BF;" d="M372.319,207.584c0,20.756-16.825,37.573-37.573,37.573s-37.573-16.817-37.573-37.573"/>
<path style="fill:#4C5454;" d="M334.746,253.515c-25.309,0-45.915-20.606-45.915-45.93c0-25.309,20.606-45.915,45.915-45.915
	c25.324,0,45.93,20.606,45.93,45.915C380.676,232.909,360.07,253.515,334.746,253.515z M334.746,178.369
	c-16.108,0-29.215,13.107-29.215,29.215c0,16.116,13.107,29.231,29.215,29.231c16.116,0,29.231-13.115,29.231-29.231
	C363.977,191.476,350.862,178.369,334.746,178.369z"/>
<path style="fill:#343F3F;" d="M334.746,177.668c-22.583,0-41.37,16.415-45.166,37.927c3.789,21.504,22.583,37.912,45.166,37.912
	c22.591,0,41.377-16.408,45.174-37.912C376.123,194.083,357.337,177.668,334.746,177.668z M363.977,223.59
	c0,16.116-13.115,29.231-29.231,29.231c-16.108,0-29.215-13.115-29.215-29.231c0-2.788,0.52-5.435,1.252-7.995
	c-0.725-2.56-1.252-5.222-1.252-8.011c0-16.108,13.107-29.215,29.215-29.215c16.116,0,29.231,13.107,29.231,29.215
	c0,2.788-0.52,5.451-1.26,8.011C363.457,218.155,363.977,220.802,363.977,223.59z"/>
<g>
	<circle style="fill:#C91911;" cx="217.332" cy="188.546" r="2.347"/>
	<circle style="fill:#C91911;" cx="232.732" cy="188.546" r="2.355"/>
	<circle style="fill:#C91911;" cx="248.123" cy="188.546" r="2.347"/>
	<circle style="fill:#C91911;" cx="263.515" cy="188.546" r="2.347"/>
	<circle style="fill:#C91911;" cx="278.914" cy="188.546" r="2.347"/>
	<circle style="fill:#C91911;" cx="217.332" cy="201.842" r="2.347"/>
	<circle style="fill:#C91911;" cx="232.732" cy="201.842" r="2.355"/>
	<circle style="fill:#C91911;" cx="248.123" cy="201.842" r="2.347"/>
	<circle style="fill:#C91911;" cx="263.515" cy="201.842" r="2.347"/>
	<circle style="fill:#C91911;" cx="278.914" cy="201.842" r="2.347"/>
	<circle style="fill:#C91911;" cx="217.332" cy="215.154" r="2.347"/>
	<circle style="fill:#C91911;" cx="232.732" cy="215.154" r="2.355"/>
	<circle style="fill:#C91911;" cx="248.123" cy="215.154" r="2.347"/>
	<circle style="fill:#C91911;" cx="263.515" cy="215.154" r="2.347"/>
	<circle style="fill:#C91911;" cx="278.914" cy="215.154" r="2.347"/>
	<circle style="fill:#C91911;" cx="217.332" cy="228.427" r="2.347"/>
	<circle style="fill:#C91911;" cx="232.732" cy="228.427" r="2.355"/>
	<circle style="fill:#C91911;" cx="248.123" cy="228.427" r="2.347"/>
	<circle style="fill:#C91911;" cx="263.515" cy="228.427" r="2.347"/>
	<circle style="fill:#C91911;" cx="278.914" cy="228.427" r="2.347"/>
	<circle style="fill:#C91911;" cx="217.332" cy="241.762" r="2.347"/>
	<circle style="fill:#C91911;" cx="232.732" cy="241.762" r="2.355"/>
	<circle style="fill:#C91911;" cx="248.123" cy="241.762" r="2.347"/>
	<circle style="fill:#C91911;" cx="263.515" cy="241.762" r="2.347"/>
	<circle style="fill:#C91911;" cx="278.914" cy="241.762" r="2.347"/>
</g>
<ellipse style="fill:#6AA8A5;" cx="24.789" cy="343.272" rx="24.789" ry="56.359"/>
<path style="fill:#87C1BF;" d="M49.577,343.272c0,31.13-11.099-6.262-24.789-6.262C11.099,337.01,0,374.402,0,343.272
	c0-31.137,11.099-56.359,24.789-56.359C38.479,286.913,49.577,312.135,49.577,343.272z"/>
<path style="fill:#2B4860;" d="M109.379,428.493c0,5.963-4.829,10.799-10.791,10.799H19.291c-5.963,0-10.799-4.829-10.799-10.799
	V258.028c0-5.947,4.829-10.783,10.799-10.783h79.297c5.963,0,10.791,4.829,10.791,10.783
	C109.379,258.028,109.379,428.493,109.379,428.493z"/>
<path style="fill:#1F3747;" d="M98.588,247.253c5.963,0,10.791,4.829,10.791,10.783v170.465c0,5.963-4.829,10.799-10.791,10.799
	H19.291c-5.963,0-10.799-4.829-10.799-10.799"/>
<g>
	<path style="fill:#29526D;" d="M115.295,261.077c0,5.616-4.545,10.177-10.177,10.177H12.753c-5.632,0-10.177-4.561-10.177-10.177
		l0,0c0-5.616,4.545-10.177,10.177-10.177h92.365C110.75,250.9,115.295,255.46,115.295,261.077L115.295,261.077z"/>
	<path style="fill:#29526D;" d="M115.295,293.955c0,5.616-4.545,10.177-10.177,10.177H12.753c-5.632,0-10.177-4.561-10.177-10.177
		l0,0c0-5.616,4.545-10.177,10.177-10.177h92.365C110.75,283.778,115.295,288.331,115.295,293.955L115.295,293.955z"/>
	<path style="fill:#29526D;" d="M115.295,326.833c0,5.616-4.545,10.177-10.177,10.177H12.753c-5.632,0-10.177-4.561-10.177-10.177
		l0,0c0-5.616,4.545-10.177,10.177-10.177h92.365C110.75,316.656,115.295,321.209,115.295,326.833L115.295,326.833z"/>
	<path style="fill:#29526D;" d="M115.295,359.712c0,5.616-4.545,10.177-10.177,10.177H12.753c-5.632,0-10.177-4.561-10.177-10.177
		l0,0c0-5.616,4.545-10.177,10.177-10.177h92.365C110.75,349.535,115.295,354.095,115.295,359.712L115.295,359.712z"/>
	<path style="fill:#29526D;" d="M115.295,392.59c0,5.608-4.545,10.169-10.177,10.169H12.753c-5.632,0-10.177-4.561-10.177-10.169
		l0,0c0-5.616,4.545-10.177,10.177-10.177h92.365C110.75,382.413,115.295,386.966,115.295,392.59L115.295,392.59z"/>
	<path style="fill:#29526D;" d="M115.295,425.46c0,5.616-4.545,10.177-10.177,10.177H12.753c-5.632,0-10.177-4.561-10.177-10.177
		l0,0c0-5.616,4.545-10.177,10.177-10.177h92.365C110.75,415.283,115.295,419.836,115.295,425.46L115.295,425.46z"/>
</g>
<ellipse style="fill:#6AA8A5;" cx="471.457" cy="343.272" rx="24.789" ry="56.359"/>
<path style="fill:#87C1BF;" d="M446.677,343.272c0,31.13,11.091-6.262,24.781-6.262s24.789,37.392,24.789,6.262
	c0-31.137-11.099-56.359-24.789-56.359C457.767,286.913,446.677,312.135,446.677,343.272z"/>
<path style="fill:#2B4860;" d="M386.859,428.493c0,5.963,4.836,10.799,10.799,10.799h79.297c5.955,0,10.799-4.829,10.799-10.799
	V258.028c0-5.947-4.836-10.783-10.799-10.783h-79.297c-5.963,0-10.799,4.829-10.799,10.783L386.859,428.493L386.859,428.493z"/>
<path style="fill:#1F3747;" d="M397.659,247.253c-5.963,0-10.799,4.829-10.799,10.783v170.465c0,5.963,4.836,10.799,10.799,10.799
	h79.297c5.955,0,10.799-4.829,10.799-10.799"/>
<g>
	<path style="fill:#29526D;" d="M380.952,261.077c0,5.616,4.545,10.177,10.177,10.177h92.365c5.624,0,10.177-4.561,10.177-10.177
		l0,0c0-5.616-4.553-10.177-10.177-10.177h-92.365C385.497,250.9,380.952,255.46,380.952,261.077L380.952,261.077z"/>
	<path style="fill:#29526D;" d="M380.952,293.955c0,5.616,4.545,10.177,10.177,10.177h92.365c5.624,0,10.177-4.561,10.177-10.177
		l0,0c0-5.616-4.553-10.177-10.177-10.177h-92.365C385.497,283.778,380.952,288.331,380.952,293.955L380.952,293.955z"/>
	<path style="fill:#29526D;" d="M380.952,326.833c0,5.616,4.545,10.177,10.177,10.177h92.365c5.624,0,10.177-4.561,10.177-10.177
		l0,0c0-5.616-4.553-10.177-10.177-10.177h-92.365C385.497,316.656,380.952,321.209,380.952,326.833L380.952,326.833z"/>
	<path style="fill:#29526D;" d="M380.952,359.712c0,5.616,4.545,10.177,10.177,10.177h92.365c5.624,0,10.177-4.561,10.177-10.177
		l0,0c0-5.616-4.553-10.177-10.177-10.177h-92.365C385.497,349.535,380.952,354.095,380.952,359.712L380.952,359.712z"/>
	<path style="fill:#29526D;" d="M380.952,392.59c0,5.608,4.545,10.169,10.177,10.169h92.365c5.624,0,10.177-4.561,10.177-10.169l0,0
		c0-5.616-4.553-10.177-10.177-10.177h-92.365C385.497,382.413,380.952,386.966,380.952,392.59L380.952,392.59z"/>
	<path style="fill:#29526D;" d="M380.952,425.46c0,5.616,4.545,10.177,10.177,10.177h92.365c5.624,0,10.177-4.561,10.177-10.177l0,0
		c0-5.616-4.553-10.177-10.177-10.177h-92.365C385.497,415.283,380.952,419.836,380.952,425.46L380.952,425.46z"/>
</g>
<path style="fill:#87C1BF;" d="M368.672,361.563c0,3.616-2.938,6.554-6.554,6.554H134.12c-3.608,0-6.546-2.93-6.546-6.554v-18.015
	c0-3.608,2.938-6.546,6.546-6.546h227.99c3.616,0,6.554,2.93,6.554,6.546v18.015H368.672z"/>
<path style="fill:#79AAA7;" d="M368.672,373.567c0,3.615-2.938,6.554-6.554,6.554H134.12c-3.608,0-6.546-2.93-6.546-6.554V355.56
	c0-3.616,2.938-6.554,6.546-6.554h227.99c3.616,0,6.554,2.93,6.554,6.554v18.007H368.672z"/>
<g>
</g>
<g>
</g>
<g>
</g>
<g>
</g>
<g>
</g>
<g>
</g>
<g>
</g>
<g>
</g>
<g>
</g>
<g>
</g>
<g>
</g>
<g>
</g>
<g>
</g>
<g>
</g>
<g>
</g>
</svg>
