<svg xmlns="http://www.w3.org/2000/svg" viewBox="0 0 64 64"><path d="M53,27H51V16a1,1,0,0,0-1-1H49V9a1,1,0,0,0-.445-.832l-3-2-1.11,1.664L47,9.535V15H46a1,1,0,0,0-1,1V27H38.72L33.387,11H37a1,1,0,0,0,1-1V6a1,1,0,0,0-1-1H7A1,1,0,0,0,6,6v4a1,1,0,0,0,1,1H9v9.968h2V11H31.279l5.333,16H11V23.064H9V28a.985.985,0,0,0,.088.4,17.994,17.994,0,0,0-6.642,4.752,1,1,0,0,0,1.506,1.317c.332-.379.686-.733,1.048-1.076V36.2L3.979,37.222a1,1,0,0,0,0,1.414l.455.454A12.7,12.7,0,0,0,3.643,41H3a1,1,0,0,0-1,1v6a1,1,0,0,0,1,1h.643a12.842,12.842,0,0,0,.79,1.91l-.454.454a1,1,0,0,0,0,1.414l4.243,4.243a1,1,0,0,0,1.414,0l.454-.454a12.9,12.9,0,0,0,1.91.79V58a1,1,0,0,0,1,1h6a1,1,0,0,0,1-1v-.643a12.9,12.9,0,0,0,1.91-.79l.454.454a1,1,0,0,0,1.414,0l4.243-4.243a1,1,0,0,0,0-1.414l-.454-.454a12.842,12.842,0,0,0,.79-1.91H36v2a1,1,0,0,0,.757.97l.822.206c.067.179.142.357.222.532l-.437.727a1,1,0,0,0,.151,1.222l2.828,2.828a1,1,0,0,0,1.221.151l.728-.436c.176.079.354.153.532.221l.206.821A1,1,0,0,0,44,59h4a1,1,0,0,0,.97-.758l.206-.821c.178-.068.356-.142.532-.221l.728.436a1,1,0,0,0,1.221-.151l2.828-2.828a1,1,0,0,0,.151-1.222l-.437-.727c.08-.175.155-.353.222-.532l.822-.206A1,1,0,0,0,56,51V49h3a3,3,0,0,0,3-3V41.959H60V46a1,1,0,0,1-1,1H56a1,1,0,0,0-.757-.97l-.822-.206c-.067-.179-.142-.357-.222-.532l.437-.727a1,1,0,0,0-.151-1.222l-2.828-2.828a1,1,0,0,0-1.221-.151l-.728.436c-.176-.079-.354-.153-.532-.221l-.206-.821A1,1,0,0,0,48,39H45V29h8a7.008,7.008,0,0,1,7,7v4h2V36A9.01,9.01,0,0,0,53,27ZM10,9H8V7H36V9H10ZM28,47h-.394a1,1,0,0,0-.968.75,10.939,10.939,0,0,1-1.17,2.828,1,1,0,0,0,.154,1.215l.277.278L23.071,54.9l-.278-.277a1,1,0,0,0-1.216-.154,10.949,10.949,0,0,1-2.827,1.171,1,1,0,0,0-.75.968V57H14v-.393a1,1,0,0,0-.75-.968,10.949,10.949,0,0,1-2.827-1.171,1,1,0,0,0-1.216.154l-.278.277L6.1,52.071l.277-.278a1,1,0,0,0,.154-1.215,10.939,10.939,0,0,1-1.17-2.828A1,1,0,0,0,4.394,47H4V43h.394a1,1,0,0,0,.968-.75,10.939,10.939,0,0,1,1.17-2.828,1,1,0,0,0-.154-1.215L6.1,37.929,8.929,35.1l.278.277a1,1,0,0,0,1.216.154,10.949,10.949,0,0,1,2.827-1.171,1,1,0,0,0,.75-.968V33h4v.393a1,1,0,0,0,.75.968,10.949,10.949,0,0,1,2.827,1.171,1,1,0,0,0,1.216-.154l.278-.277L25.9,37.929l-.277.278a1,1,0,0,0-.154,1.215,10.939,10.939,0,0,1,1.17,2.828,1,1,0,0,0,.968.75H28Zm19.219-6,.148.591a1,1,0,0,0,.678.715,6.89,6.89,0,0,1,1.241.515,1,1,0,0,0,.985-.026l.524-.314,1.724,1.724-.315.524a1,1,0,0,0-.024.987,6.908,6.908,0,0,1,.515,1.239,1,1,0,0,0,.713.678l.592.148v2.438l-.592.148a1,1,0,0,0-.713.678,6.908,6.908,0,0,1-.515,1.239,1,1,0,0,0,.024.987l.315.524L50.8,55.519l-.524-.314a1,1,0,0,0-.985-.026,6.89,6.89,0,0,1-1.241.515,1,1,0,0,0-.678.715L47.219,57H44.781l-.148-.591a1,1,0,0,0-.678-.715,6.89,6.89,0,0,1-1.241-.515,1,1,0,0,0-.985.026l-.524.314L39.481,53.8l.315-.524a1,1,0,0,0,.024-.987,6.908,6.908,0,0,1-.515-1.239,1,1,0,0,0-.713-.678L38,50.219V47.781l.592-.148a1,1,0,0,0,.713-.678,6.948,6.948,0,0,1,.515-1.24,1,1,0,0,0-.024-.986l-.315-.524,1.724-1.724.524.314a1,1,0,0,0,.985.026,6.89,6.89,0,0,1,1.241-.515,1,1,0,0,0,.678-.715L44.781,41h2.438ZM43,39.878l-.176.7c-.178.068-.356.142-.532.221l-.728-.436a1,1,0,0,0-1.221.151l-2.828,2.828a1,1,0,0,0-.151,1.222l.437.726c-.08.176-.155.354-.222.533l-.822.206A1,1,0,0,0,36,47H30V42a1,1,0,0,0-1-1h-.643a12.7,12.7,0,0,0-.791-1.91l.455-.454a1,1,0,0,0,0-1.414l-4.243-4.243a1,1,0,0,0-1.414,0l-.454.454a12.9,12.9,0,0,0-1.91-.79V32a1,1,0,0,0-1-1H13a1,1,0,0,0-1,1v.643a12.9,12.9,0,0,0-1.91.79l-.454-.454a1,1,0,0,0-1.414,0L7,34.2V31.8a15.95,15.95,0,0,1,21.049,2.674,1,1,0,0,0,1.506-1.316A17.976,17.976,0,0,0,24.191,29H43ZM47,27V17h2V27Z"/><path d="M55,32a4,4,0,0,0,0,8h1a1,1,0,0,0,1-1V33a1,1,0,0,0-1-1Zm0,6a2,2,0,0,1,0-4Z"/><rect width="5" height="2" x="35" y="32"/><rect width="5" height="2" x="35" y="36"/><path d="M32 25a1 1 0 0 0 .958-1.287l-3-10A1 1 0 0 0 29 13H14a1 1 0 0 0-1 1V24a1 1 0 0 0 1 1zM15 15H28.256l2.4 8H15zM16 37a8 8 0 1 0 8 8A8.009 8.009 0 0 0 16 37zm0 14a6 6 0 1 1 6-6A6.006 6.006 0 0 1 16 51z"/><rect width="6" height="2" x="13" y="44"/><path d="M41,49a5,5,0,1,0,5-5A5.006,5.006,0,0,0,41,49Zm5-3a3,3,0,1,1-3,3A3,3,0,0,1,46,46Z"/><rect width="2" height="2" x="45" y="48"/></svg>