<?xml version="1.0" encoding="utf-8"?>
<svg xmlns="http://www.w3.org/2000/svg" xmlns:xlink="http://www.w3.org/1999/xlink" version="1.1" id="Layer_1" x="0px" y="0px" viewBox="0 0 24 24" style="enable-background:new 0 0 24 24;" xml:space="preserve">
<style type="text/css">
	.st0{fill:none;stroke:#303C42;stroke-linecap:round;stroke-linejoin:round;}
</style>
<title>Truck 1</title>
<g id="Truck_1">
	<rect x="1.5" y="19.5" class="st0" width="21" height="2" style="fill: none; stroke: #303C42; stroke-linecap: round; stroke-linejoin: round;"/>
	<rect x="3.5" y="21.5" class="st0" width="3" height="2" style="fill: none; stroke: #303C42; stroke-linecap: round; stroke-linejoin: round;"/>
	<rect x="17.5" y="21.5" class="st0" width="3" height="2" style="fill: none; stroke: #303C42; stroke-linecap: round; stroke-linejoin: round;"/>
	<path class="st0" d="M20,14.5h-0.5V6L16,2.5H8L4.5,6v8.5H4c-0.8,0-1.5,0.7-1.5,1.5v3.5h19V16C21.5,15.2,20.8,14.5,20,14.5z" style="fill: none; stroke: #303C42; stroke-linecap: round; stroke-linejoin: round;"/>
	<rect x="6.5" y="6.5" class="st0" width="11" height="4" style="fill: none; stroke: #303C42; stroke-linecap: round; stroke-linejoin: round;"/>
	<rect x="8.5" y="13.5" class="st0" width="7" height="6" style="fill: none; stroke: #303C42; stroke-linecap: round; stroke-linejoin: round;"/>
	<line class="st0" x1="8.5" y1="15.5" x2="15.5" y2="15.5" style="fill: none; stroke: #303C42; stroke-linecap: round; stroke-linejoin: round;"/>
	<line class="st0" x1="8.5" y1="17.5" x2="15.5" y2="17.5" style="fill: none; stroke: #303C42; stroke-linecap: round; stroke-linejoin: round;"/>
	<rect x="4.5" y="16.5" class="st0" width="2" height="1" style="fill: none; stroke: #303C42; stroke-linecap: round; stroke-linejoin: round;"/>
	<rect x="17.5" y="16.5" class="st0" width="2" height="1" style="fill: none; stroke: #303C42; stroke-linecap: round; stroke-linejoin: round;"/>
	<line class="st0" x1="12" y1="6.5" x2="12" y2="10.5" style="fill: none; stroke: #303C42; stroke-linecap: round; stroke-linejoin: round;"/>
	<rect x="21.5" y="7.5" class="st0" width="1" height="2" style="fill: none; stroke: #303C42; stroke-linecap: round; stroke-linejoin: round;"/>
	<rect x="1.5" y="7.5" class="st0" width="1" height="2" style="fill: none; stroke: #303C42; stroke-linecap: round; stroke-linejoin: round;"/>
	<line class="st0" x1="2.5" y1="9.5" x2="4.5" y2="10.5" style="fill: none; stroke: #303C42; stroke-linecap: round; stroke-linejoin: round;"/>
	<line class="st0" x1="21.5" y1="9.5" x2="19.5" y2="10.5" style="fill: none; stroke: #303C42; stroke-linecap: round; stroke-linejoin: round;"/>
	<polyline class="st0" points="4.5,6 4.5,0.5 6.5,1.5 6.5,4  " style="fill: none; stroke: #303C42; stroke-linecap: round; stroke-linejoin: round;"/>
	<polyline class="st0" points="19.5,6 19.5,0.5 17.5,1.5 17.5,4  " style="fill: none; stroke: #303C42; stroke-linecap: round; stroke-linejoin: round;"/>
</g>

	<metadata>
		<rdf:RDF xmlns:rdf="http://www.w3.org/1999/02/22-rdf-syntax-ns#" xmlns:rdfs="http://www.w3.org/2000/01/rdf-schema#" xmlns:dc="http://purl.org/dc/elements/1.1/">
			<rdf:Description about="https://iconscout.com/legal#licenses" dc:title="transportation; transport; vehicles; truck; tir" dc:description="transportation; transport; vehicles; truck; tir" dc:publisher="Iconscout" dc:date="2017-02-16" dc:format="image/svg+xml" dc:language="en">
				<dc:creator>
					<rdf:Bag>
						<rdf:li>Alpár - Etele Méder</rdf:li>
					</rdf:Bag>
				</dc:creator>
			</rdf:Description>
		</rdf:RDF>
    </metadata></svg>
